PathFileType	4	(X/Y/Z)	2_coords_data.trc
DataRate	CameraRate	NumFrames	NumMarkers	Units	OrigDataRate	OrigDataStartFrame	OrigNumFrames
30.0	30.0	6	21	m	30.0	38	65
Frame#	Time	THUMB_TIP	THUMB_IP	THUMB_MCP	THUMB_CMC	INDEX_TIP	INDEX_DIP	INDEX_PIP	INDEX_MCP	MIDDLE_TIP	MIDDLE_DIP	MIDDLE_PIP	MIDDLE_MCP	RING_TIP	RING_DIP	RING_PIP	RING_MCP	PINKY_TIP	PINKY_DIP	PINKY_PIP	PINKY_MCP	WRIST
X1	Y1	Z1	X2	Y2	Z2	X3	Y3	Z3	X4	Y4	Z4	X5	Y5	Z5	X6	Y6	Z6	X7	Y7	Z7	X8	Y8	Z8	X9	Y9	Z9	X10	Y10	Z10	X11	Y11	Z11	X12	Y12	Z12	X13	Y13	Z13	X14	Y14	Z14	X15	Y15	Z15	X16	Y16	Z16	X17	Y17	Z17	X18	Y18	Z18	X19	Y19	Z19	X20	Y20	Z20	X21	Y21	Z21
36	1.233333333333328	0.47730903898088317	-0.022133478491604852	-0.1749164252231552	0.47716146294333994	-0.025837300979069666	-0.15223912555378333	0.4724588448044875	-0.03068263467511767	-0.1218544563271145	0.47377690613548573	-0.03004438786571939	-0.07727031839288934	0.560242477258592	0.03254308807018047	-0.17882769236584034	0.5493254470588405	0.024109772055111223	-0.16709322890952122	0.5332275058863012	0.015280975505936323	-0.14992003833529344	0.5064893947651985	0.0008403872826829861	-0.12008417200897403	0.5904090479972615	0.032300114798236246	-0.15210950157589403	0.5750513750114127	0.02753711045316698	-0.14377549473232926	0.5503570502319821	0.02270247478444054	-0.12907086377338695	0.5157433384990451	0.010703874748106523	-0.10349602304588246	0.5991220147873598	0.030875170292266496	-0.12055672877021578	0.5829071091319357	0.026924620215055817	-0.1137398388141474	0.5603772643907667	0.022653385368831547	-0.10402682549040354	0.5253383510995088	0.011688133109621246	-0.08709287638632313	0.5979632606814917	0.027497801086420637	-0.08129540701434379	0.5822728311775225	0.021346285717329105	-0.07830053128323256	0.5624228553017627	0.015297219337139234	-0.07510690127025121	0.5282160841795724	0.0054272125588059605	-0.06933081032656452	0.4622830810018609	-0.023011742144276925	-0.051989820119430985
37	1.2666666666666608	0.47889527760877404	-0.02064800941941869	-0.17463323591667979	0.47821169776853273	-0.024691436741025696	-0.15202387028876135	0.47277015511297427	-0.030179704738686586	-0.12187277531836949	0.4738238565439703	-0.029940253709863085	-0.07727768168129856	0.5606069335213952	0.03173132520865862	-0.17869308654758498	0.5491735111372719	0.02386584945607062	-0.16705645714849893	0.5324392115084974	0.01577221746772106	-0.15013114562487956	0.5050112538022935	0.0019753147147910655	-0.12061862786558136	0.5893488515397876	0.030768410914341127	-0.1531658605201976	0.573738201418607	0.027140381190778995	-0.1447311107835999	0.548900134575927	0.02357789311891645	-0.1299058396475833	0.5143461668316855	0.012007448975772661	-0.10405441693121598	0.5973631933134311	0.030575730743477192	-0.12319506806243147	0.5811716163706067	0.027368163288422287	-0.11594632009289435	0.5587542685218123	0.023866454733788345	-0.10568081807767049	0.5241439422516405	0.01315069077881792	-0.08773594269962393	0.5967622935620791	0.028132088753810458	-0.08534062181802038	0.581125274596545	0.022328131879323032	-0.08149384102486124	0.5613761168726785	0.01654473404084489	-0.0773302971449753	0.5274504930142908	0.0067817433055151755	-0.06993979589532617	0.4622830810018609	-0.023011742144276925	-0.051989820119430985
38	1.299999999999994	0.48108391227490443	-0.019180973135543677	-0.17423305659664612	0.47974440928628115	-0.02354302067782421	-0.15171243775562948	0.4734542995052139	-0.029650928125520948	-0.12184693950844644	0.47398596071162413	-0.029796397636100314	-0.07724216201787837	0.5612177476157143	0.03050302846487185	-0.17834089670284853	0.5491918985214809	0.023374427151405364	-0.16682733961234125	0.5317364353845762	0.01619877143149584	-0.15021931129271543	0.5035764520340835	0.003153404969368556	-0.12105649514665734	0.5882949414597409	0.029568458464320546	-0.1537301501604434	0.5724700399269347	0.027032288456019238	-0.14529567725658166	0.5474731933215325	0.024702294821816295	-0.13049235535065207	0.5129510102919486	0.013375005542967777	-0.10449121465519062	0.5955727155536329	0.03058775379096046	-0.12533137693855273	0.5794050383193972	0.028124508618575406	-0.11774595433527613	0.5570924417085481	0.025363617052372556	-0.10703588947827336	0.5229236304421484	0.014675456458102643	-0.08824822347761618	0.5953182297347464	0.02916505213234155	-0.08893767367411065	0.5797814127578862	0.02365365448141965	-0.08432987439886441	0.5601760116491049	0.018087547408349613	-0.07928421107132066	0.5266324253468504	0.008230826357583654	-0.07042101079655583	0.4622830810018609	-0.023011742144276925	-0.051989820119430985
39	1.3333333333333275	0.48373654370107133	-0.01768529270388175	-0.17370048004361638	0.48166862202074967	-0.022350811423266115	-0.15129609129937416	0.47447035884606403	-0.029089924959867286	-0.12177339907781737	0.4742360712685886	-0.02962987202005707	-0.07716909921218529	0.5621345094320058	0.028708008891603187	-0.1777068510695311	0.5494452759309082	0.022501210168965446	-0.1663728754752708	0.5312057044906469	0.01648617005775521	-0.15015106425900604	0.5022627052756597	0.004337512392155296	-0.12137001133585312	0.5873548857486107	0.02857543915592653	-0.1537998085350324	0.5713487381162545	0.0270742717376381	-0.14546016019991137	0.5461817043736069	0.02592471790095896	-0.13080722573022197	0.511626891225593	0.014740247695032127	-0.10478760937027964	0.5938693304481137	0.03081109121616965	-0.12690762183558435	0.5777293118728477	0.02906729475242109	-0.1190680444054491	0.5554968937404321	0.027031819008280222	-0.1080337160851364	0.5217374952962469	0.016190127634202023	-0.08860483091804583	0.5937467986350664	0.030552993591937083	-0.09194286887893877	0.5783465616048533	0.025253710261603723	-0.08667501394565669	0.5589151061060628	0.01980924530043049	-0.08087946759651243	0.525812132980766	0.009671622042489392	-0.07076486350411537	0.4622830810018609	-0.023011742144276925	-0.051989820119430985
40	1.3666666666666607	0.48675644101276844	-0.016264944185825247	-0.1730415407393195	0.4838852256261478	-0.021197037355308423	-0.1507832708341546	0.47572494902177553	-0.02851556213859252	-0.12165134537879552	0.47455198408279464	-0.02943262682392933	-0.07706801726598167	0.5634197313422095	0.026183467245448178	-0.17667920835327744	0.5500035313193985	0.02113325062139826	-0.16561119638192062	0.5309220705557215	0.016551883207017726	-0.1498975475141781	0.5011259293644137	0.005461997073249347	-0.1215631075223994	0.5867117907624796	0.027402553061626422	-0.15330900324459235	0.5705368723989329	0.026940196399796168	-0.14517523153339573	0.5451844646785313	0.027004222988410875	-0.13079952725936206	0.5104496853102869	0.01604931066650106	-0.10492226080290157	0.592455836339673	0.03078809008910499	-0.12783956018847786	0.5763211157001409	0.02983671975973068	-0.11985421834353194	0.5541275689314551	0.028604227796541704	-0.1086244621401749	0.5206653076694097	0.01762829924718423	-0.08876176097165289	0.5922664075800573	0.031871966507736826	-0.09429840506381848	0.5769985998697713	0.02677375412589378	-0.0884758387712502	0.5577293108728588	0.021455538904528337	-0.0820553164083343	0.5250401270231624	0.011040689669687187	-0.07092735048206189	0.4622830810018609	-0.023011742144276925	-0.051989820119430985
41	1.3999999999999937	0.4900607675738967	-0.01488387455827922	-0.17223093491545355	0.4863359741412757	-0.020057054368692095	-0.15015460993747232	0.477173525360754	-0.02790905334457916	-0.12146287516198356	0.4749256122954862	-0.02923784143502728	-0.07693118746589822	0.5648484015449577	0.02346965302977866	-0.17520550775211174	0.550742939048197	0.019645704232027272	-0.16450909043860645	0.5308670596080631	0.016550229334652444	-0.14943005583287033	0.5002050445599341	0.00652906300435907	-0.12162622241787335	0.586352457003833	0.02619188828861052	-0.15230527562949553	0.570034467576606	0.02670628451767687	-0.14446572095002347	0.5444916430868918	0.027946625964017868	-0.13048590620932882	0.5094597466721162	0.017283078483087744	-0.1048889745630085	0.5913961652596722	0.03042659170462403	-0.128081134490922	0.5752412398503363	0.03033531604214379	-0.12008050615483284	0.5530502384244962	0.02997238654102452	-0.10878414758688781	0.5197131311229553	0.019015754829277753	-0.08870155979799232	0.5910149633323795	0.03291811832808633	-0.09595131444263216	0.5758446088882936	0.028054864374966848	-0.0896895968645014	0.5566957546282842	0.02290722798581657	-0.08278776818407063	0.5243336487244936	0.0123392447334697	-0.07087578755740886	0.4622830810018609	-0.023011742144276925	-0.051989820119430985
